<?xml version="1.0" encoding="UTF-8" standalone="no"?>
<svg
   viewBox="0 0 24 24"
   version="1.1"
   id="svg1"
   sodipodi:docname="card-account-details-outline.svg"
   inkscape:version="1.3.2 (091e20e, 2023-11-25, custom)"
   xmlns:inkscape="http://www.inkscape.org/namespaces/inkscape"
   xmlns:sodipodi="http://sodipodi.sourceforge.net/DTD/sodipodi-0.dtd"
   xmlns="http://www.w3.org/2000/svg"
   xmlns:svg="http://www.w3.org/2000/svg">
  <defs
     id="defs1" />
  <sodipodi:namedview
     id="namedview1"
     pagecolor="#ffffff"
     bordercolor="#000000"
     borderopacity="0.25"
     inkscape:showpageshadow="2"
     inkscape:pageopacity="0.0"
     inkscape:pagecheckerboard="true"
     inkscape:deskcolor="#d1d1d1"
     inkscape:zoom="47.375"
     inkscape:cx="11.989446"
     inkscape:cy="12"
     inkscape:window-width="2560"
     inkscape:window-height="1351"
     inkscape:window-x="2551"
     inkscape:window-y="-9"
     inkscape:window-maximized="1"
     inkscape:current-layer="svg1" />
  <path
     d="M22,3H2C0.91,3.04 0.04,3.91 0,5V19C0.04,20.09 0.91,20.96 2,21H22C23.09,20.96 23.96,20.09 24,19V5C23.96,3.91 23.09,3.04 22,3M22,19H2V5H22V19M14,17V15.75C14,14.09 10.66,13.25 9,13.25C7.34,13.25 4,14.09 4,15.75V17H14M9,7A2.5,2.5 0 0,0 6.5,9.5A2.5,2.5 0 0,0 9,12A2.5,2.5 0 0,0 11.5,9.5A2.5,2.5 0 0,0 9,7M14,7V8H20V7H14M14,9V10H20V9H14M14,11V12H18V11H14"
     id="path1"
     style="fill:#ffffff;fill-opacity:1" />
</svg>
